<svg aria-hidden="true" style="position:absolute;width:0;height:0;overflow:hidden" xmlns="http://www.w3.org/2000/svg"><defs><symbol id="icon-google" viewBox="0 0 32 32"><path d="M16.319 13.713V19.2h9.075c-.369 2.356-2.744 6.9-9.075 6.9C10.856 26.1 6.4 21.575 6.4 16s4.456-10.1 9.919-10.1c3.106 0 5.188 1.325 6.375 2.469l4.344-4.181C24.25 1.576 20.638 0 16.319 0c-8.844 0-16 7.156-16 16s7.156 16 16 16c9.231 0 15.363-6.494 15.363-15.631 0-1.05-.113-1.85-.25-2.65l-15.113-.006z"/></symbol><symbol id="icon-facebook" viewBox="0 0 32 32"><path d="M29 0H3C1.35 0 0 1.35 0 3v26c0 1.65 1.35 3 3 3h13V18h-4v-4h4v-2c0-3.306 2.694-6 6-6h4v4h-4c-1.1 0-2 .9-2 2v2h6l-1 4h-5v14h9c1.65 0 3-1.35 3-3V3c0-1.65-1.35-3-3-3z"/></symbol><symbol id="icon-github" viewBox="0 0 32 32"><path d="M16 .395c-8.836 0-16 7.163-16 16 0 7.069 4.585 13.067 10.942 15.182.8.148 1.094-.347 1.094-.77 0-.381-.015-1.642-.022-2.979-4.452.968-5.391-1.888-5.391-1.888-.728-1.849-1.776-2.341-1.776-2.341-1.452-.993.11-.973.11-.973 1.606.113 2.452 1.649 2.452 1.649 1.427 2.446 3.743 1.739 4.656 1.33.143-1.034.558-1.74 1.016-2.14-3.554-.404-7.29-1.777-7.29-7.907 0-1.747.625-3.174 1.649-4.295-.166-.403-.714-2.03.155-4.234 0 0 1.344-.43 4.401 1.64a15.353 15.353 0 0 1 4.005-.539c1.359.006 2.729.184 4.008.539 3.054-2.07 4.395-1.64 4.395-1.64.871 2.204.323 3.831.157 4.234 1.026 1.12 1.647 2.548 1.647 4.295 0 6.145-3.743 7.498-7.306 7.895.574.497 1.085 1.47 1.085 2.963 0 2.141-.019 3.864-.019 4.391 0 .426.288.925 1.099.768C27.421 29.457 32 23.462 32 16.395c0-8.837-7.164-16-16-16z"/></symbol><symbol id="icon-exit" viewBox="0 0 32 32">
<path d="M24 20v-4h-10v-4h10v-4l6 6zM22 18v8h-10v6l-12-6v-26h22v10h-2v-8h-16l8 4v18h8v-6z"></path>
</symbol></defs></svg>